<?xml version="1.0" encoding="UTF-8"?>
<!DOCTYPE svg PUBLIC "-//W3C//DTD SVG 1.1//EN" "http://www.w3.org/Graphics/SVG/1.1/DTD/svg11.dtd">
<!-- Creator: CorelDRAW 2020 (64-Bit) -->
<svg xmlns="http://www.w3.org/2000/svg" xml:space="preserve" width="210mm" height="297mm" version="1.1" style="shape-rendering:geometricPrecision; text-rendering:geometricPrecision; image-rendering:optimizeQuality; fill-rule:evenodd; clip-rule:evenodd"
viewBox="0 0 21000 29700"
 xmlns:xlink="http://www.w3.org/1999/xlink"
 xmlns:xodm="http://www.corel.com/coreldraw/odm/2003">
 <defs>
  <style type="text/css">
   <![CDATA[
    .fil0 {fill:#FEFEFE}
   ]]>
  </style>
 </defs>
 <g id="Capa_x0020_1">
  <metadata id="CorelCorpID_0Corel-Layer"/>
  <g id="_2195535591840">
   <path class="fil0" d="M5208.66 12653.87c0,-1253.4 713.31,-2334.6 1755.94,-2799 993.2,-442.39 2160.86,-365.01 3033.48,278.78 219.2,161.71 406.21,334.66 582.26,544.05 184.35,219.25 202.2,279.44 339.51,505.23 327.23,538.06 442.93,1380.39 278.37,2110.51 -253.28,1123.73 -1152.98,2010.51 -2266.85,2271.54 -668.06,156.55 -1398.22,63.16 -1911.76,-183.68 -621.75,-298.85 -1150.71,-740.87 -1463.13,-1369.21 -204.92,-412.12 -347.82,-846.42 -347.82,-1358.22zm165.63 -5432.81l67.54 1707.28c-7.04,127.37 -146.3,174.38 -229.24,251.14l-405.47 406.14c-30.54,34.79 -39.95,64.51 -73.18,92.68 -68.4,57.99 -581.19,-15.44 -717.79,-22.47l-468.36 -28.54c-82.48,-11.27 -221.73,-14.37 -294.51,-20.2l-313.82 -17.45c-19.02,81.67 -108.97,217.94 -149.07,298.14 -148.31,296.62 -304.95,634.43 -380.96,960.68 51.71,13.81 331.04,291.02 401.34,360.58l199.05 181.91c195.31,197.13 414.33,369.21 613.26,562.74 129.23,125.72 71.06,101.35 61.71,286.06 -20.67,408.58 0.03,466.73 0.03,828.21 -104.13,55.1 -233.75,199.09 -333.73,279.12 -166.76,133.49 -319.78,291.15 -482.78,428.21l-247.56 216.21c-36.01,33.7 -47.27,34.72 -82.79,66.29 -22.47,19.97 -161.65,140.91 -161.65,153.05 0,188.62 236.56,755.44 336.59,955.36 38.99,77.92 126.35,228.78 143.75,303.46 71.93,0 144.01,0.67 215.89,0.57l447.03 -16.75c101.49,0.42 128.09,-14.91 214.4,-17.49 75.43,-2.26 156.77,0.62 232.82,0.93l662.15 -33.51c93.52,139.66 209.07,267.23 327.12,385.1 125.12,124.91 240.52,246.87 385.11,343.69l-59.27 884.85c-21.02,139.34 -12.93,295.61 -24.44,439.33 -10.37,129.43 -32.24,311.16 -32.24,448.11 196.98,104.22 368.97,196.25 585.38,292.48 107.81,47.94 204.39,88.12 319.24,127.98 110.95,38.5 226.54,83.68 337.64,109.57 73.92,-49.5 85.05,-91.68 144.6,-153.55l306.83 -322.58c208.27,-205.83 388.64,-441.12 596.06,-646.19 51.47,-50.88 125.33,-95.66 145.08,-169.63 154.06,0 295.2,33.12 463.78,33.12l347.83 0c231.97,0 190.95,-64.97 338.26,125.52l1053.07 1183c209.92,-48.91 451.53,-140.65 643.62,-217.68 207.34,-83.16 405.94,-177.27 598.64,-279.23 0,-297.49 -9.28,-601.05 -32.26,-878.73 -20.52,-247.91 13.51,-673.08 -34,-876.99 29.77,-19.93 78.07,-60.24 110.84,-87.93l332.77 -296.64c38.99,-41.71 47.15,-64.99 90.24,-108.52 37.36,-37.75 73.53,-67.51 107.24,-108.09 169.33,-203.82 207.76,-93.63 485.58,-94.83l593.51 35.89c244.04,27.21 526.15,47.27 797.47,47.27 18.15,-77.91 408.72,-776.1 513.47,-1225.69 -80.81,-120.67 -770.72,-727.54 -973.31,-914.93l-318.64 -310.77c12.04,-144.67 33.12,-262.46 33.12,-430.65l0 -364.39c0,-100.77 -16.56,-120.83 -16.56,-215.33 165.93,-111.11 333.57,-285.77 492,-418.98 31.5,-26.49 44.56,-46.54 76.06,-73.02l170.3 -144.4c202.24,-156.46 374.51,-364.38 586.72,-506.48 -7.35,-88.26 -64.33,-243.91 -93.26,-337.39 -19.06,-61.57 -37.32,-95.54 -57.86,-157.47 -89.04,-268.43 -217.13,-537.38 -345.79,-780.52 -558.29,0 -1201.93,66.25 -1772.29,66.25 -39.56,-74.77 -93.2,-131.59 -153.22,-194.61 -38.94,-40.89 -45.77,-59.78 -82.6,-99.6l-265.01 -265.01c-232.76,-215.29 -221.57,-64.17 -177.38,-615.89 35.02,-437.2 81.93,-887.7 81.93,-1325.97 -287.35,-152.04 -596.5,-299.87 -908.6,-416.48l-333.66 -113.55 -882.25 956.3c-68.82,68.48 -253.01,258.65 -293.76,335.65 -205.43,0 -387.98,-33.13 -596.28,-33.13 -141.68,0 -218.74,18.7 -348.79,17.97 -137.51,-0.78 -143.55,-55.51 -219.27,-145.58 -32.81,-39.02 -54.24,-51.73 -87.49,-94.7 -184.42,-238.39 -409.43,-443.18 -593.7,-681.69 -33.24,-43.02 -53.71,-56.42 -88.44,-93.75 -37.56,-40.37 -42.59,-58.83 -82.44,-99.76 -257.97,-265 -81.59,-253.3 -838.81,14.58 -157.11,55.59 -500.2,246.55 -606.54,271.32z"/>
   <path class="fil0" d="M14301.99 19428.32c0,-420.13 374.84,-761.92 745.36,-761.92 411.53,0 761.92,347.51 761.92,761.92 0,799.4 -1105.69,1030.94 -1434.31,307.99 -32.42,-71.33 -72.97,-214.65 -72.97,-307.99zm347.84 -3544.57c-6.19,74.37 -256.41,753.76 -296.04,863.4l-122.9 340.87c-23.25,58.77 -37.21,120.08 -61.4,170.49 -52.51,-4.37 -358.83,-154.25 -425.16,-187.69l-852.63 -408.31c-97.55,-34.2 -113.46,35.05 -186.8,92.09l-314.71 314.71c-127.99,164.58 -164.87,61.75 111.71,614.53l408.76 850.06 -1202.14 421.07c-61.59,23.88 -118.73,53.4 -189.19,59.27 0,105.07 -16.56,138.29 -16.56,248.45l0 314.7c0,110.17 16.56,143.38 16.56,248.46 171.02,39.84 1308.85,473.47 1391.33,480.34l-629.41 1341.63 546.6 546.6c55.62,0 122.61,-45.3 165.39,-66.49l834.06 -391.64c96.11,-48.45 239.72,-130.85 342.19,-154.72 24.12,50.28 38.45,110.78 59.85,172.04l182.2 513.47c28.89,82.62 232.31,617.44 238.29,689.26 83.97,0 90.24,16.56 182.2,16.56l414.08 0c100.76,0 120.82,-16.56 215.33,-16.56 28.89,-124.01 79.23,-227.33 118.15,-345.63l362.19 -1029.14c85.52,7.12 250.38,113.06 333.59,146.75 166.3,67.33 936.63,466.1 991.48,466.1 69,0 563.16,-521.85 563.16,-546.6 0,-79.96 -581.1,-1205.38 -612.85,-1341.63 65.66,-15.3 110.01,-35 172.63,-59.27 63.77,-24.71 111.51,-36.09 172.82,-59.07l683.42 -244.13c116.43,-38.77 228.75,-90.58 345.9,-117.87 1.67,-74.91 16.56,-65.83 16.56,-149.08l0 -513.46c0,-83.25 -14.89,-74.17 -16.56,-149.07 -68.49,-5.7 -1058.31,-370.04 -1202.73,-420.49 -61.25,-21.4 -121.76,-35.73 -172.04,-59.85 27.11,-116.34 612.85,-1279.97 612.85,-1325.08 0,-59.67 -447.56,-496.84 -546.59,-563.16 -43.39,10.11 -122.61,47.39 -165.42,66.47l-839.31 402.96c-116.99,58.97 -225.9,101.24 -336.91,159.98 -5.82,-69.9 -208.93,-605.21 -238.29,-689.26l-242.05 -702.06c-105.08,0 -138.29,-16.57 -248.46,-16.57l-314.7 0c-110.16,0 -143.38,16.57 -248.45,16.57z"/>
   <path class="fil0" d="M6715.93 12554.49c0,408.53 80.48,670.2 295.55,963.28 764.18,1041.36 2413.08,713.46 2719.23,-548.96 81.52,-336.15 40.57,-669.71 -73.19,-954.2 -128.88,-322.3 -378.64,-576.24 -662.71,-745.18 -63.42,-37.72 -127.97,-61.18 -192.02,-89.57 -190.1,-84.27 -395.13,-99.51 -612.71,-99.51 -779.71,0 -1474.15,694.43 -1474.15,1474.14z"/>
  </g>
 </g>
</svg>
