<?xml version="1.0" encoding="UTF-8"?>
<!DOCTYPE svg PUBLIC "-//W3C//DTD SVG 1.1//EN" "http://www.w3.org/Graphics/SVG/1.1/DTD/svg11.dtd">
<!-- Creator: CorelDRAW 2020 (64-Bit) -->
<svg xmlns="http://www.w3.org/2000/svg" xml:space="preserve" width="200mm" height="200mm" version="1.1" style="shape-rendering:geometricPrecision; text-rendering:geometricPrecision; image-rendering:optimizeQuality; fill-rule:evenodd; clip-rule:evenodd"
viewBox="0 0 20000 20000"
 xmlns:xlink="http://www.w3.org/1999/xlink"
 xmlns:xodm="http://www.corel.com/coreldraw/odm/2003">
 <defs>
  <style type="text/css">
   <![CDATA[
    .fil0 {fill:#FEFEFE}
   ]]>
  </style>
 </defs>
 <g id="Capa_x0020_1">
  <metadata id="CorelCorpID_0Corel-Layer"/>
  <path class="fil0" d="M2166.25 15682.15c529.67,174.13 911.96,175.2 1276.64,36.53 416.46,-158.37 865.42,-509.68 1475.78,-996.69l186.74 -149.1c836.22,-670.47 1655.81,-1327.58 2860.91,-1741.97 3168.74,-1089.69 5264.99,495.6 6981.12,1793.41 1161.46,878.33 2116.32,1600.44 2989.84,985.96 580.29,-408.2 706.62,-1498.78 607.46,-2785.99 -170.77,-2216.5 -1036,-4922.88 -1497.02,-6095.11 -177.53,-451.34 -383.8,-969.13 -647.08,-1403.74 -243.82,-402.49 -541.79,-748.46 -921.5,-922 -178.46,-81.57 -414.91,-144.49 -668.17,-186.12 -277.92,-45.68 -567.54,-63.91 -819.4,-51.98 -425.67,20.17 -846.84,198.77 -1280.24,382.56 -561,237.89 -1139.64,483.26 -1866.13,497.72l-225.01 4.53c-1555.66,31.47 -2114.43,42.78 -3498.43,-539.73 -470.72,-198.14 -954.94,-331.45 -1433.08,-346.41 -457.47,-14.33 -915.61,81.61 -1358.61,337.67 -587.85,339.79 -1149.03,1472.74 -1621.11,2825.38 -725.57,2078.95 -1199.15,4618.41 -1277.01,5765.73 -45.49,670.24 -23.26,1228.18 107.69,1673.45 112.33,381.99 310.83,686.08 626.61,915.9zm12353.2 -6057.05c0,-369.51 -299.6,-669.11 -669.11,-669.11 -369.5,0 -669.11,299.6 -669.11,669.11 0,369.51 299.61,669.11 669.11,669.11 369.51,0 669.11,-299.6 669.11,-669.11zm1338.82 -1338.54c0,-369.65 -299.6,-669.25 -669.24,-669.25 -369.64,0 -669.25,299.6 -669.25,669.25 0,369.63 299.61,669.24 669.25,669.24 369.64,0 669.24,-299.61 669.24,-669.24zm-2676.9 0c0,-369.65 -299.6,-669.25 -669.24,-669.25 -369.64,0 -669.25,299.6 -669.25,669.25 0,369.63 299.61,669.24 669.25,669.24 369.64,0 669.24,-299.61 669.24,-669.24zm1338.08 -1338.35c0,-369.51 -299.6,-669.11 -669.11,-669.11 -369.5,0 -669.11,299.6 -669.11,669.11 0,369.51 299.61,669.1 669.11,669.1 369.51,0 669.11,-299.59 669.11,-669.1zm-6661.93 769.35l-853.34 0 0 -853.06c0,-156.93 -127.39,-284.44 -284.33,-284.44l-568.89 0c-157.1,0 -284.45,127.39 -284.45,284.44l0 853.06 -853.28 0c-157.1,0 -284.33,127.4 -284.33,284.62l0 568.9c0,157.1 127.39,284.61 284.33,284.61l853.28 0.05 0 853.07c0,157.22 127.4,284.45 284.45,284.45l568.89 0c157.11,0 284.33,-127.06 284.33,-284.45l0 -853.07 853.34 0c157.11,0 284.45,-127.39 284.45,-284.6l0 -568.9c0,-157.22 -127.51,-284.62 -284.45,-284.62l0 -0.06z"/>
 </g>
</svg>
