<?xml version="1.0" encoding="UTF-8"?>
<!DOCTYPE svg PUBLIC "-//W3C//DTD SVG 1.1//EN" "http://www.w3.org/Graphics/SVG/1.1/DTD/svg11.dtd">
<!-- Creator: CorelDRAW 2020 (64-Bit) -->
<svg xmlns="http://www.w3.org/2000/svg" xml:space="preserve" width="423.333mm" height="423.333mm" version="1.1" style="shape-rendering:geometricPrecision; text-rendering:geometricPrecision; image-rendering:optimizeQuality; fill-rule:evenodd; clip-rule:evenodd"
viewBox="0 0 42333.32 42333.32"
 xmlns:xlink="http://www.w3.org/1999/xlink"
 xmlns:xodm="http://www.corel.com/coreldraw/odm/2003">
 <defs>
  <style type="text/css">
   <![CDATA[
    .fil0 {fill:#FEFEFE;fill-rule:nonzero}
   ]]>
  </style>
 </defs>
 <g id="Capa_x0020_1">
  <metadata id="CorelCorpID_0Corel-Layer"/>
  <path class="fil0" d="M27475.39 7443.6l-10073.4 0c-3718.63,0 -6744.05,3045.99 -6744.05,6790.02l0 1633.05 3414.71 0 0 -1633.05c0,-1848.34 1493.52,-3352.02 3329.34,-3352.02l10073.4 0c1835.82,0 3329.34,1503.68 3329.34,3352.02l0 14783.3c0,1848.34 -1493.52,3352.02 -3329.34,3352.02l-10073.4 0c-1835.82,0 -3329.34,-1503.68 -3329.34,-3352.02l0 -1976.83 -3414.71 0 0 1976.83c0,3743.99 3025.42,6790.02 6744.05,6790.02l10073.4 0c3718.66,0 6744.05,-3046.03 6744.05,-6790.02l0 -14783.3c0,-3744.03 -3025.39,-6790.02 -6744.05,-6790.02z"/>
  <polygon class="fil0" points="18883.24,28329.32 27731.5,21514.14 18883.24,14835.25 18883.24,18651.78 7584.72,18651.78 7584.72,24103.92 18883.24,24103.92 "/>
 </g>
</svg>
