<?xml version="1.0" encoding="UTF-8"?>
<!DOCTYPE svg PUBLIC "-//W3C//DTD SVG 1.1//EN" "http://www.w3.org/Graphics/SVG/1.1/DTD/svg11.dtd">
<!-- Creator: CorelDRAW 2020 (64-Bit) -->
<svg xmlns="http://www.w3.org/2000/svg" xml:space="preserve" width="705.556mm" height="705.556mm" version="1.1" style="shape-rendering:geometricPrecision; text-rendering:geometricPrecision; image-rendering:optimizeQuality; fill-rule:evenodd; clip-rule:evenodd"
viewBox="0 0 70555.56 70555.56"
 xmlns:xlink="http://www.w3.org/1999/xlink"
 xmlns:xodm="http://www.corel.com/coreldraw/odm/2003">
 <defs>
  <style type="text/css">
   <![CDATA[
    .fil0 {fill:#FEFEFE}
   ]]>
  </style>
 </defs>
 <g id="Capa_x0020_1">
  <metadata id="CorelCorpID_0Corel-Layer"/>
  <path class="fil0" d="M42024.77 17298.72c0,-519.42 -421.22,-940.74 -940.84,-940.74 -4700.45,0 -25417.62,0 -25417.62,0 -887.79,0 -1607.49,719.99 -1607.49,1607.83 0,6717.41 0,32505.36 0,39222.97 0,887.94 719.7,1607.59 1607.49,1607.59 6717.56,0 32505.41,0 39223.36,0 887.36,0 1607.34,-719.65 1607.34,-1607.59 0,0 0,-20716.93 0,-25417.66 0,-519.58 -421.31,-940.8 -940.74,-940.8 -600.23,0 -1376.01,0 -1976.72,0 -249.13,0 -488.64,99.13 -665.15,275.59 -176.51,176.37 -275.59,415.69 -275.59,665.21 0,4262.58 0,21559.65 0,21559.65 0,887.94 -719.5,1607.64 -1607.34,1607.64 -5811.93,0 -25695.42,0 -31507.15,0 -887.79,0 -1607.49,-719.7 -1607.49,-1607.64 0,-5811.63 0,-25695.37 0,-31507.24 0,-887.84 719.7,-1607.35 1607.49,-1607.35 0,0 17296.97,0 21559.61,0 249.37,0 488.93,-99.07 665.3,-275.58 176.41,-176.51 275.54,-415.55 275.54,-665.16 0,-600.71 0,-1376.01 0,-1976.72l0 0z"/>
  <path class="fil0" d="M60716.89 16684.55c242.88,-242.4 378.99,-571.37 378.99,-914.29 0,-342.92 -136.11,-671.89 -378.99,-914.77 -790.21,-790.21 -1927.18,-1927.18 -2717.38,-2717.39 -242.4,-242.88 -571.85,-378.99 -914.77,-378.99 -342.92,0 -671.89,136.11 -914.29,378.99 -1327.43,1327.43 -3632.16,3632.16 -3632.16,3632.16l4546.45 4546.44c0,0 2304.72,-2304.24 3632.15,-3632.15l0 0zm-4775.86 4776.82l-4547.4 -4546.93 -15913.28 15913.47 4546.97 4546.69 15913.71 -15913.23 0 0zm-23878.19 19330.97l6820.06 -2273.32 -4546.69 -4546.87 -2273.37 6820.19 0 0z"/>
 </g>
</svg>
